<?xml version="1.0" encoding="UTF-8"?><svg id="_レイヤー_2" xmlns="http://www.w3.org/2000/svg" viewBox="0 0 746.66 142.79"><g id="_レイヤー_1-2"><path d="M96.75,111.1c0,3.19-.95,6.59-2.86,10.22-1.91,3.62-4.81,7.08-8.72,10.36-3.91,3.28-8.83,5.92-14.77,7.92-5.94,2-12.63,3-20.06,3-15.81,0-28.16-4.61-37.03-13.83C4.44,119.56,0,107.2,0,91.7c0-10.5,2.03-19.78,6.09-27.84,4.06-8.06,9.94-14.3,17.62-18.7s16.88-6.61,27.56-6.61c6.62,0,12.7,.97,18.23,2.91,5.53,1.94,10.22,4.44,14.06,7.5,3.84,3.06,6.78,6.33,8.81,9.8,2.03,3.47,3.05,6.7,3.05,9.7s-1.14,5.66-3.42,7.78c-2.28,2.12-5.05,3.19-8.3,3.19-2.13,0-3.89-.55-5.3-1.64-1.41-1.09-2.99-2.86-4.73-5.3-3.13-4.75-6.39-8.31-9.8-10.69-3.41-2.38-7.73-3.56-12.98-3.56-7.56,0-13.66,2.95-18.28,8.86-4.63,5.91-6.94,13.98-6.94,24.23,0,4.81,.59,9.23,1.78,13.27,1.19,4.03,2.91,7.47,5.16,10.31,2.25,2.84,4.97,5,8.16,6.47,3.19,1.47,6.69,2.2,10.5,2.2,5.12,0,9.52-1.19,13.17-3.56,3.66-2.38,6.89-6,9.7-10.88,1.56-2.87,3.25-5.12,5.06-6.75,1.81-1.62,4.03-2.44,6.66-2.44,3.12,0,5.72,1.19,7.78,3.56,2.06,2.38,3.09,4.91,3.09,7.59Z"/><path d="M144.09,16.23V54.2c3.25-3.75,6.42-6.72,9.52-8.91,3.09-2.19,6.52-3.83,10.27-4.92,3.75-1.09,7.78-1.64,12.09-1.64,6.5,0,12.26,1.38,17.3,4.12,5.03,2.75,8.98,6.75,11.86,12,1.81,3.06,3.03,6.48,3.66,10.27,.62,3.78,.94,8.14,.94,13.08v49.03c0,5.12-1.17,9-3.52,11.62s-5.45,3.94-9.33,3.94c-8.44,0-12.66-5.19-12.66-15.56v-43.22c0-8.19-1.22-14.48-3.66-18.89s-7.06-6.61-13.88-6.61c-4.56,0-8.67,1.3-12.33,3.89-3.66,2.59-6.39,6.14-8.2,10.64-1.38,3.81-2.06,10.59-2.06,20.34v33.84c0,5.06-1.14,8.92-3.42,11.58-2.28,2.66-5.45,3.98-9.52,3.98-8.44,0-12.66-5.19-12.66-15.56V16.23c0-5.19,1.11-9.08,3.33-11.67,2.22-2.59,5.33-3.89,9.33-3.89s7.23,1.31,9.52,3.94c2.28,2.62,3.42,6.5,3.42,11.62Z"/><path d="M299.72,128.35c-6.19,4.81-12.17,8.42-17.95,10.83-5.78,2.41-12.27,3.61-19.45,3.61-6.56,0-12.33-1.3-17.3-3.89s-8.8-6.11-11.48-10.55c-2.69-4.44-4.03-9.25-4.03-14.44,0-7,2.22-12.97,6.66-17.91,4.44-4.94,10.53-8.25,18.28-9.94,1.62-.38,5.66-1.22,12.09-2.53,6.44-1.31,11.95-2.52,16.55-3.61,4.59-1.09,9.58-2.42,14.95-3.98-.31-6.75-1.67-11.7-4.08-14.86-2.41-3.16-7.39-4.73-14.95-4.73-6.5,0-11.39,.91-14.67,2.72-3.28,1.81-6.09,4.53-8.44,8.16-2.34,3.62-4,6.02-4.97,7.17-.97,1.16-3.05,1.73-6.23,1.73-2.88,0-5.36-.92-7.45-2.77-2.1-1.84-3.14-4.2-3.14-7.08,0-4.5,1.59-8.87,4.78-13.12,3.19-4.25,8.16-7.75,14.91-10.5,6.75-2.75,15.15-4.12,25.22-4.12,11.25,0,20.09,1.33,26.53,3.98,6.44,2.66,10.98,6.86,13.64,12.61,2.66,5.75,3.98,13.37,3.98,22.87,0,6-.02,11.09-.05,15.28-.03,4.19-.08,8.84-.14,13.97,0,4.81,.8,9.83,2.39,15.05,1.59,5.22,2.39,8.58,2.39,10.08,0,2.62-1.23,5.02-3.7,7.17-2.47,2.16-5.27,3.23-8.39,3.23-2.62,0-5.22-1.23-7.78-3.7-2.56-2.47-5.28-6.05-8.16-10.73Zm-1.69-37.03c-3.75,1.38-9.2,2.83-16.36,4.36-7.16,1.53-12.11,2.66-14.86,3.38-2.75,.72-5.38,2.12-7.88,4.22-2.5,2.09-3.75,5.02-3.75,8.77s1.47,7.17,4.41,9.89c2.94,2.72,6.78,4.08,11.53,4.08,5.06,0,9.73-1.11,14.02-3.33,4.28-2.22,7.42-5.08,9.42-8.58,2.31-3.88,3.47-10.25,3.47-19.12v-3.66Z"/><path d="M350.53,40.98h2.81v-15.38c0-4.12,.11-7.36,.33-9.7,.22-2.34,.83-4.36,1.83-6.05,1-1.75,2.44-3.17,4.31-4.27,1.88-1.09,3.97-1.64,6.28-1.64,3.25,0,6.19,1.22,8.81,3.66,1.75,1.63,2.86,3.61,3.33,5.95s.7,5.67,.7,9.98v17.44h9.38c3.62,0,6.39,.86,8.3,2.58,1.91,1.72,2.86,3.92,2.86,6.61,0,3.44-1.36,5.84-4.08,7.22-2.72,1.38-6.61,2.06-11.67,2.06h-4.78v47.06c0,4,.14,7.08,.42,9.23s1.03,3.91,2.25,5.25c1.22,1.34,3.2,2.02,5.95,2.02,1.5,0,3.53-.27,6.09-.8,2.56-.53,4.56-.8,6-.8,2.06,0,3.92,.83,5.58,2.48,1.66,1.66,2.48,3.7,2.48,6.14,0,4.12-2.25,7.28-6.75,9.47s-10.97,3.28-19.41,3.28c-8,0-14.06-1.34-18.19-4.03s-6.83-6.41-8.11-11.16c-1.28-4.75-1.92-11.09-1.92-19.03V59.45h-3.38c-3.69,0-6.5-.88-8.44-2.62-1.94-1.75-2.91-3.97-2.91-6.66s1.02-4.89,3.05-6.61c2.03-1.72,4.98-2.58,8.86-2.58Z"/><path d="M418.5,40.98h2.81v-15.38c0-4.12,.11-7.36,.33-9.7,.22-2.34,.83-4.36,1.83-6.05,1-1.75,2.44-3.17,4.31-4.27,1.88-1.09,3.97-1.64,6.28-1.64,3.25,0,6.19,1.22,8.81,3.66,1.75,1.63,2.86,3.61,3.33,5.95s.7,5.67,.7,9.98v17.44h9.38c3.62,0,6.39,.86,8.3,2.58,1.91,1.72,2.86,3.92,2.86,6.61,0,3.44-1.36,5.84-4.08,7.22-2.72,1.38-6.61,2.06-11.67,2.06h-4.78v47.06c0,4,.14,7.08,.42,9.23s1.03,3.91,2.25,5.25c1.22,1.34,3.2,2.02,5.95,2.02,1.5,0,3.53-.27,6.09-.8,2.56-.53,4.56-.8,6-.8,2.06,0,3.92,.83,5.58,2.48,1.66,1.66,2.48,3.7,2.48,6.14,0,4.12-2.25,7.28-6.75,9.47s-10.97,3.28-19.41,3.28c-8,0-14.06-1.34-18.19-4.03s-6.83-6.41-8.11-11.16c-1.28-4.75-1.92-11.09-1.92-19.03V59.45h-3.38c-3.69,0-6.5-.88-8.44-2.62-1.94-1.75-2.91-3.97-2.91-6.66s1.02-4.89,3.05-6.61c2.03-1.72,4.98-2.58,8.86-2.58Z"/><path d="M549.75,128.35c-6.19,4.81-12.17,8.42-17.95,10.83-5.78,2.41-12.27,3.61-19.45,3.61-6.56,0-12.33-1.3-17.3-3.89s-8.8-6.11-11.48-10.55c-2.69-4.44-4.03-9.25-4.03-14.44,0-7,2.22-12.97,6.66-17.91,4.44-4.94,10.53-8.25,18.28-9.94,1.62-.38,5.66-1.22,12.09-2.53,6.44-1.31,11.95-2.52,16.55-3.61,4.59-1.09,9.58-2.42,14.95-3.98-.31-6.75-1.67-11.7-4.08-14.86-2.41-3.16-7.39-4.73-14.95-4.73-6.5,0-11.39,.91-14.67,2.72-3.28,1.81-6.09,4.53-8.44,8.16-2.34,3.62-4,6.02-4.97,7.17-.97,1.16-3.05,1.73-6.23,1.73-2.88,0-5.36-.92-7.45-2.77-2.09-1.84-3.14-4.2-3.14-7.08,0-4.5,1.59-8.87,4.78-13.12,3.19-4.25,8.16-7.75,14.91-10.5,6.75-2.75,15.16-4.12,25.22-4.12,11.25,0,20.09,1.33,26.53,3.98,6.44,2.66,10.98,6.86,13.64,12.61,2.66,5.75,3.98,13.37,3.98,22.87,0,6-.02,11.09-.05,15.28-.03,4.19-.08,8.84-.14,13.97,0,4.81,.8,9.83,2.39,15.05,1.59,5.22,2.39,8.58,2.39,10.08,0,2.62-1.23,5.02-3.7,7.17-2.47,2.16-5.27,3.23-8.39,3.23-2.62,0-5.22-1.23-7.78-3.7-2.56-2.47-5.28-6.05-8.16-10.73Zm-1.69-37.03c-3.75,1.38-9.2,2.83-16.36,4.36-7.16,1.53-12.11,2.66-14.86,3.38-2.75,.72-5.38,2.12-7.88,4.22-2.5,2.09-3.75,5.02-3.75,8.77s1.47,7.17,4.41,9.89c2.94,2.72,6.78,4.08,11.53,4.08,5.06,0,9.73-1.11,14.02-3.33,4.28-2.22,7.42-5.08,9.42-8.58,2.31-3.88,3.47-10.25,3.47-19.12v-3.66Z"/><path d="M622.78,15.29V54.38c4.81-5,9.72-8.83,14.72-11.48,5-2.66,11.19-3.98,18.56-3.98,8.5,0,15.95,2.02,22.36,6.05,6.41,4.03,11.38,9.88,14.91,17.53,3.53,7.66,5.3,16.73,5.3,27.23,0,7.75-.98,14.86-2.95,21.33s-4.83,12.08-8.58,16.83c-3.75,4.75-8.3,8.42-13.64,11.02s-11.24,3.89-17.67,3.89c-3.94,0-7.64-.47-11.11-1.41s-6.42-2.17-8.86-3.7c-2.44-1.53-4.52-3.11-6.23-4.73-1.72-1.62-3.98-4.06-6.8-7.31v2.53c0,4.81-1.16,8.45-3.47,10.92-2.31,2.47-5.25,3.7-8.81,3.7s-6.52-1.23-8.67-3.7-3.23-6.11-3.23-10.92V16.42c0-5.19,1.05-9.11,3.14-11.77,2.09-2.66,5.02-3.98,8.77-3.98,3.94,0,6.97,1.27,9.09,3.8,2.12,2.53,3.19,6.14,3.19,10.83Zm1.22,76.03c0,10.19,2.33,18.02,6.98,23.48,4.66,5.47,10.77,8.2,18.33,8.2,6.44,0,11.98-2.8,16.64-8.39,4.66-5.59,6.98-13.61,6.98-24.05,0-6.75-.97-12.56-2.91-17.44-1.94-4.88-4.69-8.64-8.25-11.3-3.56-2.66-7.72-3.98-12.47-3.98s-9.22,1.33-13.03,3.98c-3.81,2.66-6.81,6.5-9,11.53-2.19,5.03-3.28,11.02-3.28,17.95Z"/><path d="M733.93,25.03c-3.56-.02-6.6-1.13-9.12-3.33-2.52-2.2-3.77-5.3-3.74-9.3,.02-3.62,1.33-6.6,3.94-8.93C727.61,1.14,730.63-.02,734.07,0c3.31,.02,6.24,1.1,8.79,3.24,2.55,2.14,3.81,5.24,3.79,9.3-.02,3.94-1.29,7.01-3.8,9.21-2.51,2.21-5.49,3.3-8.93,3.28Z"/><path d="M746.43,51.79l-.43,75.24c-.03,5.21-1.27,9.15-3.72,11.8-2.45,2.66-5.55,3.97-9.3,3.95s-6.79-1.41-9.12-4.15c-2.33-2.75-3.48-6.66-3.45-11.75l.43-74.48c.03-5.15,1.22-9.02,3.58-11.61,2.36-2.59,5.41-3.88,9.16-3.86,3.75,.02,6.84,1.34,9.26,3.96,2.42,2.62,3.62,6.25,3.59,10.89Z"/></g></svg>